:SAMPLES-PER-SECOND 30
:FULLY-SPECIFIED
:DEGREES
424
root  -39.5127 38.0211 -29.2755 2.04918 -46.0306 -9.78459
RightUpLeg  -14.3897 -38.8676 6.38111
RightLeg  58.669 -2.96651 -5.7112
RightFoot  -0.689337 -0.4751 5.56461
RightToes  0.00048216 0.542163 -0.142577
Spine  36.5772 1.67726 7.39883
Spine1  13.8055 7.48696 -9.82423
HEad  -8.67771 -0.0840137 0.0476446
LeftShoulder1  9.86095 -16.8668 -42.0159
LeftArm  -17.4313 -17.6045 -28.734
LeftForeArm  1.8595 -49.0485 -12.8149
LeftHand  -0.25398 0.0180481 5.50724
RightShoulder  5.81585 14.388 26.4187
RightArm  4.6689 54.3377 46.8575
RightForeArm  -7.80038 14.9872 8.38057
RightHand  0.445176 3.06784 5.82322
LeftUpLeg  -22.535 28.0042 -13.2622
LeftLeg  13.9023 16.5041 1.02984
LeftFoot  -1.44602 -2.47697 27.7574
LeftToes  1.06244e-005 4.65854e-005 -8.18505e-006
425
root  -40.7466 37.6567 -29.3081 0.112091 -43.5244 -6.72874
RightUpLeg  -22.5014 -38.4702 4.33605
RightLeg  69.38 -1.42689 -5.01874
RightFoot  12.1137 -0.593431 3.25677
RightToes  0.00048216 0.542163 -0.142577
Spine  38.8416 1.67056 4.31253
Spine1  12.2616 6.20613 -9.35749
HEad  -10.4662 -0.392415 0.717168
LeftShoulder1  9.91778 -17.2744 -41.3803
LeftArm  -16.9533 -19.1296 -29.7113
LeftForeArm  2.68475 -47.6001 -12.1026
LeftHand  -0.25398 0.0180481 5.50724
RightShoulder  5.72436 14.2157 26.2118
RightArm  1.79921 54.5119 44.9226
RightForeArm  -4.77969 13.997 8.51796
RightHand  0.612088 4.08944 7.14304
LeftUpLeg  -26.6578 29.1168 -17.0521
LeftLeg  21.9055 11.9759 6.02087
LeftFoot  -5.05545 -1.44356 26.2086
LeftToes  1.06244e-005 4.65854e-005 -8.18505e-006
426
root  -41.8387 37.5038 -29.4598 -0.87915 -40.739 -4.34879
RightUpLeg  -30.1769 -36.1223 2.75467
RightLeg  75.4995 -0.775038 -4.80627
RightFoot  16.2275 -0.118933 0.885031
RightToes  0.00048216 0.542163 -0.142577
Spine  41.723 1.17172 2.8289
Spine1  11.9068 5.46013 -9.81136
HEad  -13.416 -1.2659 0.743329
LeftShoulder1  10.0152 -17.8993 -40.492
LeftArm  -15.8575 -23.2219 -30.9066
LeftForeArm  2.91063 -44.6555 -10.8787
LeftHand  -0.25398 0.0180481 5.50724
RightShoulder  5.56208 13.9262 25.8035
RightArm  -2.42465 55.259 41.3631
RightForeArm  -3.62555 13.773 8.27765
RightHand  0.750141 4.9816 7.98553
LeftUpLeg  -28.4031 26.5149 -16.9783
LeftLeg  27.4463 11.9744 6.99306
LeftFoot  -6.37868 -0.943638 22.4763
LeftToes  1.06244e-005 4.65854e-005 -8.18505e-006
427
root  -42.8427 37.6887 -29.6631 -0.161835 -38.3878 -4.05183
RightUpLeg  -35.8819 -32.1532 1.93942
RightLeg  76.0313 -1.2312 -6.98072
RightFoot  13.4189 0.226028 -0.594857
RightToes  0.00048216 0.542163 -0.142577
Spine  44.5046 0.31075 3.63852
Spine1  12.475 5.35702 -10.7074
HEad  -16.9586 -2.31799 0.336262
LeftShoulder1  10.0871 -18.6938 -39.2022
LeftArm  -14.571 -28.8286 -32.5071
LeftForeArm  2.62316 -40.5261 -9.40808
LeftHand  -0.25398 0.0180481 5.50724
RightShoulder  5.39554 13.6769 25.2783
RightArm  -8.47232 56.3526 36.4794
RightForeArm  -2.34207 13.6914 7.81511
RightHand  0.929385 5.85805 9.13008
LeftUpLeg  -28.9408 26.152 -16.0903
LeftLeg  28.6258 10.058 6.24447
LeftFoot  -6.25697 -0.917224 21.2469
LeftToes  1.06244e-005 4.65854e-005 -8.18505e-006
428
root  -43.819 37.9831 -29.8937 1.14622 -36.1231 -4.29576
RightUpLeg  -39.0861 -27.7659 0.418287
RightLeg  71.4185 -2.79743 -10.1116
RightFoot  9.61185 0.199653 -0.721151
RightToes  0.00048216 0.542163 -0.142577
Spine  47.19 -0.523702 4.55692
Spine1  12.6788 5.13666 -11.1715
HEad  -20.4184 -3.15931 0.42042
LeftShoulder1  10.1215 -19.518 -37.7717
LeftArm  -13.7871 -34.1877 -34.0516
LeftForeArm  2.26616 -36.2751 -8.0979
LeftHand  -0.25398 0.0180481 5.50724
RightShoulder  5.33718 13.6859 24.9056
RightArm  -14.5306 57.3989 30.9816
RightForeArm  -0.769468 13.5939 7.37668
RightHand  1.11586 6.67208 10.2397
LeftUpLeg  -29.0832 24.7426 -14.5915
LeftLeg  28.3182 8.81352 5.45587
LeftFoot  -5.7712 -0.99592 20.9455
LeftToes  1.06244e-005 4.65854e-005 -8.18505e-006
